<svg width="235" height="244" viewBox="0 0 235 244" fill="none" xmlns="http://www.w3.org/2000/svg">
<path d="M235 136.89C232.108 134.745 228.764 133.672 224.969 133.672H122.43C108.107 134.16 97.2832 137.578 89.959 143.926C82.6348 150.111 77.3451 157.191 74.0898 165.166C70.8346 172.979 69.207 180.954 69.207 189.092C69.207 197.555 70.7533 205.775 73.8457 213.75C77.1009 221.562 82.3906 228.643 89.7148 234.99C95.6135 239.863 102.725 242.865 111.048 244H0V50C0 22.3858 22.3858 5.63728e-07 50 0H235V136.89ZM202.508 166.387C206.74 166.549 208.855 168.665 208.855 172.734V231.572C209.419 237.203 211.443 241.345 214.928 244H183.75C186.513 243.288 188.941 241.831 191.033 239.629C194.288 236.536 195.916 232.712 195.916 228.154C195.916 223.597 194.288 219.772 191.033 216.68C187.941 213.424 184.116 211.797 179.559 211.797H117.059C113.966 211.797 111.281 210.576 109.002 208.135C106.723 205.531 105.014 202.601 103.875 199.346C102.898 195.928 102.41 192.591 102.41 189.336C102.41 185.918 102.898 182.581 103.875 179.326C105.014 175.908 106.723 172.979 109.002 170.537C111.281 167.933 113.966 166.549 117.059 166.387H202.508Z" fill="url(#paint0_linear_21_4)"/>
<defs>
<linearGradient id="paint0_linear_21_4" x1="117.5" y1="0" x2="117.5" y2="244" gradientUnits="userSpaceOnUse">
<stop stop-color="#4C36AE"/>
<stop offset="1" stop-color="#261A5D"/>
</linearGradient>
</defs>
</svg>
